PathFileType  4	(X/Y/Z) C:\Users\antoi\Documents\MyRepositories\mobilecap\ResultsAnalysis
DataRate	CameraRate	NumFrames	NumMarkers	Units	OrigDataRate	OrigDataStartFrame	OrigNumFrames
100.0	100.0	6	51	mm	100.0	53	141
Frame#	Time	r_knee			r_shank_antsup			r_ankle			r_calc			r_5meta			r_toe			L_knee			L_shank_antsup			L_ankle			L_calc			L_5meta			L_toe			r_sh2			r_sh3			r_sh4			L_sh2			L_sh3			r_thigh1			r_thigh2			r_thigh3			r_thigh4			r_thigh5			L_thigh1			L_thigh2			L_thigh3			L_thigh4			r.ASIS			r.PSIS			L.ASIS			L.PSIS			C7			R_Shoulder			L_Shoulder			R_Sternum			L_Sternum			R_humerus			R_elbow_med			R_elbow_lat			R_forearm			R_wrist_radius			R_wrist_ulna			L_humerus			L_elbow_med			L_elbow_lat			L_forearm			L_wrist_radius			L_wrist_ulna			R_HJC			L_HJC			R_HJC_reg			L_HJC_reg			
		X1	Y1	Z1	X2	Y2	Z2	X3	Y3	Z3	X4	Y4	Z4	X5	Y5	Z5	X6	Y6	Z6	X7	Y7	Z7	X8	Y8	Z8	X9	Y9	Z9	X10	Y10	Z10	X11	Y11	Z11	X12	Y12	Z12	X13	Y13	Z13	X14	Y14	Z14	X15	Y15	Z15	X16	Y16	Z16	X17	Y17	Z17	X18	Y18	Z18	X19	Y19	Z19	X20	Y20	Z20	X21	Y21	Z21	X22	Y22	Z22	X23	Y23	Z23	X24	Y24	Z24	X25	Y25	Z25	X26	Y26	Z26	X27	Y27	Z27	X28	Y28	Z28	X29	Y29	Z29	X30	Y30	Z30	X31	Y31	Z31	X32	Y32	Z32	X33	Y33	Z33	X34	Y34	Z34	X35	Y35	Z35	X36	Y36	Z36	X37	Y37	Z37	X38	Y38	Z38	X39	Y39	Z39	X40	Y40	Z40	X41	Y41	Z41	X42	Y42	Z42	X43	Y43	Z43	X44	Y44	Z44	X45	Y45	Z45	X46	Y46	Z46	X47	Y47	Z47	X48	Y48	Z48	X49	Y49	Z49	X50	Y50	Z50	X51	Y51	Z51	

53	0.52000000	302.99876	482.07857	-84.53757	313.39995	380.69069	-102.57041	155.06490	97.53956	-141.02669	89.39725	65.26439	-187.64428	269.66718	43.57192	-99.69345	305.16699	68.60497	-157.60564	565.47012	502.79437	-347.77320	632.56407	449.94718	-336.65052	719.30696	122.50748	-335.10826	671.71809	52.47014	-283.00956	841.45354	108.77909	-367.71298	869.22207	158.50919	-314.92911	277.09452	274.68865	-117.01567	253.65405	393.59120	-57.14618	210.73655	287.27085	-65.82476	552.68434	429.20864	-376.12848	597.79931	315.62612	-383.25917	412.96985	748.55541	-41.01805	400.43238	640.20073	-66.52481	344.64582	616.87270	-34.19038	302.75953	751.64556	-10.75822	292.56124	640.88584	-43.22984	528.84099	753.43240	-350.18046	592.72556	630.59456	-327.69845	445.88772	701.83750	-402.04523	502.94392	584.80230	-369.54282	456.89156	945.78819	-68.88609	254.81607	973.59869	-176.52822	474.51738	944.08082	-325.28216	265.42617	964.30494	-268.43573	332.04713	1433.58946	-235.76479	400.06502	1407.89131	-64.26290	420.17561	1374.86867	-381.95466	449.01740	1352.48412	-197.82731	450.23187	1348.34793	-243.27553	442.15002	1278.14730	-10.35005	351.48092	1077.85957	-18.29546	372.00029	1093.62279	42.79240	431.67754	1031.77909	60.53190	488.56299	870.50631	37.00903	457.15561	871.10423	77.90880	442.53700	1229.93571	-429.90196	367.30689	1036.02835	-380.30870	378.44215	1045.14828	-458.42338	431.93173	991.10708	-473.15578	498.35117	826.44080	-455.49649	460.08526	824.50448	-488.60682	376.56888	856.38763	-104.07162	396.02133	853.54051	-292.61268	381.01600	877.75412	-106.88088	400.37415	860.79822	-274.54079	
54	0.53000000	310.67492	480.70893	-84.57093	319.47668	379.04576	-102.78847	156.07129	98.63393	-141.10159	89.92891	66.84181	-187.69573	269.77096	43.49788	-99.67881	305.57520	68.23429	-157.61031	578.06598	501.43026	-346.80363	645.53432	449.00366	-335.85459	735.01805	122.06655	-334.05148	688.82496	51.24713	-281.62378	857.00279	110.27959	-367.53310	884.38648	160.68331	-314.99315	281.35491	273.70989	-117.24185	260.05362	392.91718	-57.26310	215.27171	287.43140	-65.95714	565.78335	427.57687	-375.21744	612.08290	314.53534	-382.31825	423.22126	746.12089	-40.17569	409.83218	637.92397	-65.92999	353.63013	615.06561	-33.83051	312.99916	750.10920	-10.28094	301.79466	639.49318	-43.02673	541.17808	751.66826	-349.35028	604.99137	628.81031	-326.67272	458.07640	700.12581	-400.97454	515.12056	583.03539	-368.41793	468.56084	943.57091	-67.83761	266.73626	971.60910	-175.88585	486.77180	941.67081	-324.54886	277.34789	962.01084	-267.65453	345.51552	1431.14658	-239.30091	413.58956	1406.94292	-67.51164	433.66181	1369.73215	-384.76980	462.01823	1349.71726	-200.45196	463.20912	1345.00736	-245.82874	455.74832	1277.40249	-13.06902	364.41967	1077.34561	-18.54678	385.29167	1093.60087	42.17620	445.14920	1031.83707	59.95496	501.85725	870.40395	37.24965	470.74279	871.27074	78.24486	455.52087	1224.33512	-431.26307	379.96479	1030.87069	-380.85960	390.79162	1039.72744	-459.09406	444.08478	985.38386	-473.71523	509.70069	820.46500	-455.50858	471.34053	818.57330	-488.51324	388.28437	854.24084	-103.16374	407.97809	851.21026	-291.67762	392.68575	875.88080	-105.69516	412.09489	858.32619	-273.52964	
55	0.54000000	318.58957	479.32922	-84.71461	325.71463	377.38063	-103.09386	157.13603	99.89872	-141.14476	90.48767	68.71968	-187.72968	269.88240	43.42013	-99.65078	305.98727	67.85677	-157.54930	591.28601	500.44487	-345.73026	658.73875	447.70597	-335.03363	747.92732	120.64567	-332.78383	702.60482	49.62990	-279.84556	869.56118	109.60444	-367.19218	897.01685	160.37636	-315.12713	285.74121	272.78613	-117.51116	266.67053	392.29541	-57.46913	219.96040	287.69200	-66.13636	578.90095	426.25124	-374.15431	625.35070	313.38248	-381.18390	433.53529	743.67394	-39.38465	419.31291	635.65332	-65.37138	362.72451	613.24041	-33.55813	323.26123	748.52826	-10.00876	311.17265	638.07578	-43.00327	553.78952	750.30570	-348.79083	617.80123	627.58605	-325.88242	470.55680	698.59584	-399.95919	527.79964	581.60694	-367.33276	480.34064	941.34057	-66.80792	278.87004	969.70209	-175.10524	499.19819	939.40404	-323.84088	289.38290	959.95929	-266.71787	359.11424	1428.76735	-243.05367	427.33078	1406.15821	-70.95891	447.17249	1364.63920	-387.71266	475.17434	1347.06022	-203.24678	476.32768	1341.77329	-248.53951	469.48201	1276.84017	-15.90833	377.41157	1077.07560	-19.02457	398.58333	1093.78785	41.36642	458.56454	1032.05830	59.23541	515.03542	870.45288	37.40796	484.14526	871.57530	78.46908	468.58980	1218.84020	-432.70250	392.68193	1025.82949	-381.47203	403.22022	1034.41884	-459.83818	456.28362	979.75530	-474.31458	521.02115	814.54579	-455.56740	482.54499	812.71736	-488.46337	400.14929	852.11589	-102.28126	420.01978	849.04969	-290.77629	404.60983	873.90557	-104.55134	423.89498	856.03409	-272.61318	
56	0.55000000	326.68416	477.96605	-84.95018	332.08102	375.73623	-103.47391	158.26102	101.35280	-141.15719	91.09959	70.92019	-187.75591	270.01101	43.33633	-99.60489	306.41073	67.46458	-157.41262	604.98245	499.73229	-344.51300	672.07080	446.01382	-334.11492	758.19500	118.40170	-331.32626	713.19590	47.67085	-277.86068	879.37289	107.03773	-366.67814	907.33101	157.71406	-315.14765	290.23703	271.95579	-117.80678	273.47218	391.76264	-57.74792	224.78786	288.08371	-66.35016	591.94373	425.15109	-372.88765	637.54023	312.07489	-379.81136	443.92402	741.23213	-38.64763	428.87151	633.40268	-64.84605	371.91912	611.42564	-33.36566	333.56423	746.94286	-9.90898	320.67991	636.67757	-43.13997	566.65320	749.32404	-348.49262	631.09633	626.87998	-325.30701	483.32345	697.22922	-399.00832	540.94248	580.49456	-366.24455	492.27422	939.11783	-65.82885	291.25513	967.89281	-174.21413	511.84242	937.31894	-323.17687	301.57380	958.14189	-265.64629	372.82134	1426.47216	-247.04105	441.29391	1405.54780	-74.61904	460.68808	1359.62153	-390.78550	488.49043	1344.52850	-206.21833	489.58793	1338.66448	-251.42069	483.34808	1276.48234	-18.84652	390.43692	1077.06897	-19.72758	411.88194	1094.19520	40.36936	471.91300	1032.45948	58.38146	528.09344	870.67032	37.48044	497.36342	872.04020	78.58990	481.72602	1213.48148	-434.23116	405.46512	1020.93112	-382.13055	415.74427	1029.23880	-460.62764	468.51982	974.24459	-474.94512	532.31431	808.71615	-455.67547	493.68369	806.96205	-488.45055	412.21825	850.02862	-101.45105	432.20290	847.08139	-289.93561	416.82284	871.89016	-103.46597	435.81669	853.94181	-271.79586	
57	0.56000000	334.91606	476.64908	-85.25934	338.56507	374.16491	-103.90906	159.46492	103.01494	-141.13780	91.81119	73.46322	-187.77673	270.16748	43.24666	-99.53610	306.85715	67.04983	-157.20521	618.92893	499.15957	-343.14329	685.38505	443.93330	-333.02361	766.15621	115.61377	-329.69142	720.93371	45.56705	-275.85138	886.82102	103.03243	-365.98908	915.70817	153.05250	-314.84181	294.83131	271.25551	-118.10715	280.42986	391.35675	-58.08375	229.74178	288.64448	-66.58759	604.81822	424.19186	-371.39698	648.67964	310.57773	-378.16696	454.41250	738.81464	-37.96923	438.50155	631.18623	-64.35498	381.21825	609.64791	-33.24977	343.94931	745.39333	-9.93654	330.31035	635.33727	-43.41448	579.73916	748.65547	-348.45358	644.74769	626.56669	-324.93779	496.32315	695.99196	-398.11120	554.44450	579.63267	-365.11597	504.40957	936.91940	-64.92519	303.92095	966.20524	-173.25417	524.74718	935.44337	-322.56891	313.96748	956.54242	-264.48125	386.61078	1424.26201	-251.24023	455.46788	1405.10910	-78.49930	474.19940	1354.71454	-393.98859	501.97336	1342.13732	-209.37132	502.98378	1335.69277	-254.48275	497.33829	1276.33707	-21.86896	403.48670	1077.32483	-20.63985	425.18974	1094.82897	39.20059	485.19217	1033.05092	57.40461	541.02833	871.05867	37.46337	510.40624	872.68198	78.61209	494.91827	1208.28112	-435.86418	418.32175	1016.19279	-382.82609	428.38916	1024.19334	-461.43510	480.79376	968.86529	-475.60119	543.57736	802.99845	-455.82816	504.74536	801.32363	-488.46320	424.53532	847.99622	-100.69982	444.58333	845.31935	-289.18092	429.33829	869.91390	-102.45034	447.90238	852.05802	-271.07115	
58	0.57000000	343.27379	475.40995	-85.62514	345.18950	372.72556	-104.37106	160.78447	104.90659	-141.08208	92.68197	76.37344	-187.78527	270.36385	43.15601	-99.44132	307.35123	66.61290	-156.94241	632.86642	498.60677	-341.64867	698.52855	441.53749	-331.70714	772.32678	112.61637	-327.89676	726.33451	43.62591	-273.96335	892.42717	98.07872	-365.10823	922.65278	146.87537	-314.02492	299.52542	270.71690	-118.39120	287.52947	391.11119	-58.46267	234.81944	289.41457	-66.84083	617.45079	423.30596	-369.70235	658.91022	308.92403	-376.24241	465.03590	736.44402	-37.35482	448.20307	629.02176	-63.90115	390.64374	607.93283	-33.20956	354.46968	743.91770	-10.04995	340.07484	634.08378	-43.80375	593.00540	748.19951	-348.67823	658.57497	626.46823	-324.77673	509.45669	694.84916	-397.24683	568.14588	578.93153	-363.93032	516.78849	934.75852	-64.10549	316.88044	964.67263	-172.27157	537.93759	933.79022	-322.01812	326.60387	955.14843	-263.27858	400.46346	1422.11764	-255.58622	469.83027	1404.83219	-82.59587	487.70343	1349.95462	-397.32192	515.62686	1339.90140	-212.70752	516.50584	1332.86848	-257.73086	511.44109	1276.40034	-24.96503	416.56007	1077.83074	-21.73049	438.50835	1095.68976	37.88426	498.40610	1033.83482	56.31926	553.83306	871.60669	37.35031	523.29021	873.50849	78.53744	508.15864	1203.25507	-437.61981	431.25499	1011.62350	-383.55616	441.16777	1019.28497	-462.24388	493.10983	963.62497	-476.28105	554.80482	797.40583	-456.01479	515.72902	795.81375	-488.48671	437.11995	846.03877	-100.04698	457.20019	843.76973	-288.52899	442.14293	868.05552	-101.50684	460.18370	850.38234	-270.42353	
